<svg width="520" height="519" viewBox="0 0 520 519" fill="none" xmlns="http://www.w3.org/2000/svg">
<circle cx="260.307" cy="259.413" r="259.413" fill="#010D7C"/>
<path fill-rule="evenodd" clip-rule="evenodd" d="M207.888 123.412C222.623 122.733 227.321 122.583 264.855 122.583C302.389 122.583 307.087 122.746 321.809 123.412C336.531 124.077 346.58 126.426 355.373 129.831C364.581 133.31 372.934 138.749 379.843 145.784C386.878 152.68 392.304 161.021 395.771 170.241C399.188 179.034 401.525 189.083 402.203 203.78C402.881 218.54 403.032 223.238 403.032 260.76C403.032 298.294 402.869 302.992 402.203 317.726C401.537 332.423 399.188 342.473 395.771 351.266C392.304 360.487 386.869 368.842 379.843 375.748C372.934 382.783 364.581 388.209 355.373 391.676C346.58 395.093 336.531 397.429 321.834 398.108C307.087 398.786 302.389 398.937 264.855 398.937C227.321 398.937 222.623 398.773 207.888 398.108C193.191 397.442 183.142 395.093 174.349 391.676C165.128 388.209 156.773 382.773 149.866 375.748C142.837 368.848 137.397 360.497 133.926 351.278C130.522 342.485 128.185 332.436 127.507 317.739C126.828 302.979 126.678 298.281 126.678 260.76C126.678 223.226 126.841 218.528 127.507 203.806C128.173 189.083 130.522 179.034 133.926 170.241C137.402 161.022 142.846 152.671 149.879 145.771C156.776 138.743 165.122 133.303 174.336 129.831C183.129 126.426 193.179 124.09 207.876 123.412H207.888ZM320.691 148.283C306.12 147.618 301.748 147.48 264.855 147.48C227.962 147.48 223.59 147.618 209.019 148.283C195.54 148.899 188.229 151.147 183.355 153.044C176.911 155.557 172.301 158.534 167.465 163.37C162.881 167.83 159.353 173.259 157.14 179.26C155.243 184.134 152.994 191.445 152.379 204.924C151.713 219.495 151.575 223.866 151.575 260.76C151.575 297.653 151.713 302.024 152.379 316.596C152.994 330.074 155.243 337.385 157.14 342.259C159.35 348.251 162.88 353.69 167.465 358.149C171.924 362.734 177.364 366.264 183.355 368.475C188.229 370.372 195.54 372.62 209.019 373.236C223.59 373.902 227.949 374.04 264.855 374.04C301.761 374.04 306.12 373.902 320.691 373.236C334.169 372.62 341.48 370.372 346.354 368.475C352.798 365.963 357.408 362.986 362.245 358.149C366.83 353.69 370.359 348.251 372.57 342.259C374.467 337.385 376.715 330.074 377.331 316.596C377.997 302.024 378.135 297.653 378.135 260.76C378.135 223.866 377.997 219.495 377.331 204.924C376.715 191.445 374.467 184.134 372.57 179.26C370.058 172.816 367.081 168.206 362.245 163.37C357.784 158.786 352.355 155.258 346.354 153.044C341.48 151.147 334.169 148.899 320.691 148.283V148.283ZM247.206 303.356C257.062 307.459 268.038 308.013 278.257 304.923C288.477 301.833 297.306 295.29 303.238 286.413C309.17 277.536 311.836 266.875 310.78 256.251C309.725 245.627 305.014 235.699 297.452 228.162C292.631 223.345 286.803 219.656 280.385 217.361C273.968 215.067 267.121 214.224 260.339 214.893C253.556 215.562 247.007 217.726 241.161 221.23C235.316 224.734 230.32 229.491 226.533 235.157C222.747 240.824 220.264 247.26 219.263 254.001C218.262 260.742 218.768 267.622 220.745 274.144C222.722 280.666 226.121 286.669 230.696 291.72C235.272 296.772 240.91 300.745 247.206 303.356ZM214.634 210.539C221.229 203.943 229.058 198.712 237.675 195.143C246.292 191.573 255.528 189.736 264.855 189.736C274.182 189.736 283.417 191.573 292.034 195.143C300.651 198.712 308.481 203.943 315.076 210.539C321.671 217.134 326.903 224.963 330.472 233.58C334.041 242.197 335.878 251.433 335.878 260.76C335.878 270.087 334.041 279.322 330.472 287.939C326.903 296.556 321.671 304.386 315.076 310.981C301.756 324.3 283.691 331.783 264.855 331.783C246.018 331.783 227.953 324.3 214.634 310.981C201.314 297.661 193.831 279.596 193.831 260.76C193.831 241.923 201.314 223.858 214.634 210.539V210.539ZM351.63 200.313C353.264 198.772 354.573 196.918 355.478 194.861C356.383 192.805 356.866 190.588 356.899 188.341C356.931 186.095 356.513 183.865 355.668 181.783C354.824 179.701 353.57 177.81 351.981 176.221C350.393 174.632 348.501 173.378 346.419 172.534C344.337 171.689 342.107 171.271 339.861 171.304C337.614 171.336 335.397 171.819 333.341 172.724C331.284 173.629 329.43 174.938 327.889 176.572C324.89 179.751 323.249 183.972 323.313 188.341C323.376 192.71 325.14 196.883 328.23 199.972C331.32 203.062 335.492 204.826 339.861 204.89C344.23 204.953 348.452 203.312 351.63 200.313V200.313Z" fill="white"/>
</svg>
