<svg width="520" height="519" viewBox="0 0 520 519" fill="none" xmlns="http://www.w3.org/2000/svg">
<circle cx="259.906" cy="259.413" r="259.413" fill="#010D7C"/>
<path d="M174.069 99.8767C157.221 99.8767 143.563 113.535 143.563 130.382C143.563 147.23 157.221 160.888 174.069 160.888C190.916 160.888 204.574 147.23 204.574 130.382C204.574 113.535 190.916 99.8767 174.069 99.8767Z" fill="white"/>
<path d="M145.357 186.01C144.366 186.01 143.563 186.813 143.563 187.804V374.427C143.563 375.418 144.366 376.221 145.357 376.221H202.78C203.771 376.221 204.574 375.418 204.574 374.427V187.804C204.574 186.813 203.771 186.01 202.78 186.01H145.357Z" fill="white"/>
<path d="M238.669 186.01C237.678 186.01 236.874 186.813 236.874 187.804V374.427C236.874 375.418 237.678 376.221 238.669 376.221H296.091C297.082 376.221 297.885 375.418 297.885 374.427V273.938C297.885 266.799 300.721 259.953 305.769 254.905C310.817 249.857 317.663 247.021 324.802 247.021C331.941 247.021 338.787 249.857 343.835 254.905C348.883 259.953 351.719 266.799 351.719 273.938V374.427C351.719 375.418 352.522 376.221 353.513 376.221H410.935C411.926 376.221 412.73 375.418 412.73 374.427V250.685C412.73 215.848 382.431 188.594 347.768 191.745C337.079 192.717 326.51 195.374 316.64 199.604L297.885 207.642V187.804C297.885 186.813 297.082 186.01 296.091 186.01H238.669Z" fill="white"/>
</svg>
