<svg width="508" height="506" viewBox="0 0 508 506" fill="none" xmlns="http://www.w3.org/2000/svg">
<path d="M254 0C113.908 0 0 113.459 0 253C0 392.541 113.908 506 254 506C394.092 506 508 392.541 508 253C508 113.459 394.092 0 254 0ZM254 31.625C376.933 31.625 476.25 130.55 476.25 253C476.25 375.449 376.933 474.375 254 474.375C131.067 474.375 31.75 375.449 31.75 253C31.75 130.55 131.067 31.625 254 31.625ZM254 126.5L174.625 205.562H127V300.438H174.625L254 379.5V126.5ZM322.957 154.913C319.514 155.216 316.264 156.63 313.702 158.94C311.139 161.25 309.403 164.33 308.757 167.712C308.112 171.095 308.592 174.594 310.125 177.68C311.659 180.765 314.161 183.268 317.252 184.809C355.379 206.734 368.286 254.307 346.273 292.284C339.307 304.303 329.319 314.251 317.252 321.191C315.428 322.262 313.833 323.68 312.559 325.365C311.285 327.049 310.357 328.968 309.827 331.01C309.298 333.051 309.177 335.177 309.472 337.265C309.767 339.354 310.472 341.364 311.547 343.181C312.622 344.998 314.046 346.586 315.737 347.855C317.428 349.124 319.353 350.049 321.403 350.576C323.453 351.104 325.588 351.224 327.684 350.931C329.781 350.637 331.799 349.934 333.623 348.863C350.515 339.148 364.302 325.416 374.055 308.591C404.647 255.812 386.61 187.608 333.623 157.137C330.861 155.485 327.66 154.709 324.445 154.913C323.949 154.889 323.453 154.889 322.957 154.913ZM301.873 195.926C301.373 195.984 300.877 196.066 300.385 196.171C296.947 196.375 293.67 197.687 291.046 199.908C288.422 202.13 286.595 205.14 285.839 208.486C285.083 211.833 285.44 215.333 286.856 218.459C288.271 221.586 290.669 224.169 293.688 225.82C309.036 234.646 313.959 253.522 305.098 268.81C302.311 273.618 298.515 277.399 293.688 280.175C291.863 281.214 290.262 282.6 288.976 284.254C287.69 285.909 286.743 287.799 286.19 289.818C285.637 291.837 285.489 293.945 285.754 296.021C286.019 298.097 286.692 300.101 287.734 301.918C288.777 303.735 290.168 305.329 291.829 306.61C293.49 307.892 295.389 308.834 297.416 309.385C299.442 309.936 301.558 310.083 303.643 309.819C305.727 309.556 307.738 308.886 309.562 307.848C319.215 302.297 327.306 294.238 332.879 284.623C350.32 254.533 339.771 215.52 309.562 198.148C307.232 196.764 304.585 196.001 301.873 195.926Z" fill="white"/>
</svg>
