<svg width="512" height="512" viewBox="0 0 512 512" fill="none" xmlns="http://www.w3.org/2000/svg">
<path fill-rule="evenodd" clip-rule="evenodd" d="M421.334 256C421.334 247.163 414.17 240 405.334 240H172.308C163.471 240 156.308 247.163 156.308 256C156.308 264.837 163.471 272 172.308 272H405.334C414.17 272 421.334 264.837 421.334 256Z" fill="white"/>
<path fill-rule="evenodd" clip-rule="evenodd" d="M421.334 149.333C421.334 140.497 414.17 133.333 405.334 133.333H106.667C97.8304 133.333 90.667 140.497 90.667 149.333C90.667 158.17 97.8304 165.333 106.667 165.333H405.334C414.17 165.333 421.334 158.17 421.334 149.333Z" fill="white"/>
<path fill-rule="evenodd" clip-rule="evenodd" d="M421.334 362.667C421.334 353.83 414.17 346.667 405.334 346.667H237.949C229.112 346.667 221.949 353.83 221.949 362.667C221.949 371.503 229.112 378.667 237.949 378.667H405.334C414.17 378.667 421.334 371.503 421.334 362.667Z" fill="white"/>
</svg>
