<svg width="512" height="512" viewBox="0 0 512 512" fill="none" xmlns="http://www.w3.org/2000/svg">
<path d="M384 256L192 383.999V128L384 256ZM256 0.0478516C114.804 0.0478516 0.0473633 114.805 0.0473633 256C0.0473633 397.195 114.804 511.952 256 511.952C397.195 511.952 511.952 397.195 511.952 256C511.952 114.805 397.195 0.0478516 256 0.0478516ZM256 31.9526C379.901 31.9526 480.047 132.099 480.047 256C480.047 379.901 379.901 480.047 256 480.047C132.098 480.047 31.9522 379.901 31.9522 256C31.9522 132.099 132.098 31.9526 256 31.9526Z" fill="white"/>
</svg>
