<svg width="519" height="519" viewBox="0 0 519 519" fill="none" xmlns="http://www.w3.org/2000/svg">
<circle cx="259.413" cy="259.587" r="259.413" fill="#010D7C"/>
<path d="M225.838 337.491C218.672 337.491 212.863 331.683 212.863 324.516V183.98C212.863 176.814 218.672 171.005 225.838 171.005C233.004 171.005 238.812 176.814 238.812 183.98V324.516C238.812 331.683 233.004 337.491 225.838 337.491Z" fill="white"/>
<path d="M183.258 337.491C176.092 337.491 170.283 331.683 170.283 324.516V196.779C170.283 189.613 176.092 183.804 183.258 183.804C190.424 183.804 196.232 189.613 196.232 196.779V324.516C196.231 331.683 190.423 337.491 183.258 337.491Z" fill="white"/>
<path d="M140.675 337.491C133.509 337.491 127.7 331.683 127.7 324.517V203.126C127.7 195.96 133.509 190.152 140.675 190.152C147.841 190.152 153.649 195.96 153.649 203.126V324.517C153.649 331.683 147.841 337.491 140.675 337.491Z" fill="white"/>
<path d="M98.0947 320.393C90.9286 320.393 85.1201 314.585 85.1201 307.418V247.852C85.1201 240.685 90.9286 234.877 98.0947 234.877C105.261 234.877 111.069 240.685 111.069 247.852V307.418C111.068 314.585 105.259 320.393 98.0947 320.393Z" fill="white"/>
<path d="M396.369 337.491C396.348 337.491 396.331 337.491 396.31 337.491L312.365 337.115H273.231C266.065 337.115 260.257 331.307 260.257 324.141V179.127C260.257 173.802 263.51 169.019 268.461 167.061C278.74 162.999 295.27 158.254 308.032 158.254C351.558 158.254 387.753 190.956 392.719 233.665C393.35 233.738 394.044 233.813 394.802 233.891C423.151 236.704 443.753 258.044 443.753 284.627C443.753 291.793 437.944 297.602 430.778 297.602C423.612 297.602 417.803 291.793 417.803 284.627C417.803 271.242 407.515 261.229 392.203 259.709C386.314 259.108 383.427 258.57 382.908 258.467L378.077 257.546C372.237 256.431 367.9 251.485 367.557 245.547L367.269 240.557C365.607 208.927 339.589 184.201 308.029 184.201C302.706 184.201 294.352 185.828 286.202 188.331V311.164H312.421L396.424 311.54C403.588 311.572 409.371 317.407 409.339 324.573C409.31 331.72 403.506 337.489 396.369 337.491Z" fill="white"/>
</svg>
