<svg width="520" height="519" viewBox="0 0 520 519" fill="none" xmlns="http://www.w3.org/2000/svg">
<circle cx="260.36" cy="259.587" r="259.413" fill="#010D7C"/>
<g clip-path="url(#clip0_113_413)">
<path d="M258.267 85.2935C165.55 85.2935 90.1191 160.73 90.1191 253.455C90.1191 346.237 165.55 421.72 258.267 421.72C351.056 421.72 426.546 346.237 426.546 253.455C426.546 160.73 351.056 85.2935 258.267 85.2935ZM172.935 315.244C192.43 309.309 212.418 306.3 232.342 306.3C266.178 306.3 299.583 314.875 328.959 331.108C330.706 332.06 332.294 335.208 333.007 339.127C333.72 343.045 333.436 347.074 332.292 349.17C330.848 351.859 327.919 353.598 324.827 353.598C323.295 353.598 321.948 353.253 320.601 352.525C293.634 337.703 263.115 329.867 232.342 329.867C213.75 329.867 195.498 332.619 178.108 338.039C177.261 338.296 176.39 338.427 175.519 338.427C171.711 338.429 168.406 336.003 167.298 332.404C165.801 327.483 168.897 316.564 172.935 315.244ZM165.6 253.289C187.329 247.383 209.784 244.387 232.343 244.387C272.896 244.387 313.166 254.199 348.825 272.778C351.324 274.046 353.166 276.197 354.01 278.834C354.866 281.504 354.608 284.375 353.272 286.938C350.09 293.165 346.37 297.35 344.014 297.35C342.344 297.35 340.733 296.95 339.128 296.148C306.016 278.905 270.089 270.163 232.342 270.163C211.345 270.163 190.746 272.924 171.135 278.364C170.223 278.611 169.286 278.735 168.354 278.735C163.637 278.737 159.479 275.55 158.248 271C156.672 265.082 160.273 254.738 165.6 253.289ZM163.722 212.811C162.726 213.057 161.707 213.181 160.695 213.181C154.993 213.182 150.053 209.329 148.681 203.819C146.961 196.845 151.325 188.743 157.644 187.151C182.221 181.114 207.352 178.053 232.342 178.053C280.716 178.053 327.045 188.929 370.057 210.386C373.044 211.859 375.271 214.403 376.33 217.548C377.389 220.696 377.155 224.084 375.677 227.078C373.663 231.11 369.31 235.45 364.513 235.45C362.663 235.45 360.764 235.017 359.082 234.227C319.572 214.459 276.931 204.436 232.343 204.436C209.428 204.437 186.342 207.254 163.722 212.811Z" fill="white"/>
</g>
<defs>
<clipPath id="clip0_113_413">
<rect width="336.427" height="336.427" fill="white" transform="translate(90.1191 85.2935)"/>
</clipPath>
</defs>
</svg>
