<svg width="520" height="519" viewBox="0 0 520 519" fill="none" xmlns="http://www.w3.org/2000/svg">
<circle cx="260.36" cy="259.413" r="259.413" fill="#010D7C"/>
<path d="M392.714 198.736C392.902 201.446 392.902 204.156 392.902 206.89C392.902 290.219 329.465 386.322 213.47 386.322V386.272C179.204 386.322 145.651 376.507 116.805 358.001C121.787 358.6 126.795 358.9 131.815 358.912C160.211 358.937 187.796 349.409 210.136 331.864C183.15 331.352 159.487 313.758 151.22 288.071C160.673 289.894 170.413 289.52 179.691 286.985C150.271 281.041 129.105 255.192 129.105 225.172C129.105 224.897 129.105 224.635 129.105 224.373C137.871 229.255 147.686 231.965 157.726 232.265C130.016 213.746 121.475 176.883 138.208 148.062C170.226 187.46 217.466 211.411 268.177 213.946C263.095 192.043 270.038 169.091 286.421 153.694C311.821 129.818 351.768 131.042 375.644 156.429C389.767 153.644 403.304 148.462 415.691 141.119C410.983 155.717 401.131 168.117 387.969 175.996C400.469 174.523 412.682 171.176 424.182 166.069C415.716 178.756 405.052 189.807 392.714 198.736Z" fill="white"/>
</svg>
