<svg width="520" height="519" viewBox="0 0 520 519" fill="none" xmlns="http://www.w3.org/2000/svg">
<circle cx="259.84" cy="259.413" r="259.413" fill="#010D7C"/>
<path fill-rule="evenodd" clip-rule="evenodd" d="M259.84 87.1467C164.738 87.1467 87.5732 164.312 87.5732 259.413C87.5732 354.515 164.738 431.68 259.84 431.68C354.755 431.68 432.107 354.515 432.107 259.413C432.107 164.312 354.755 87.1467 259.84 87.1467ZM373.625 166.554C394.178 191.59 406.509 223.54 406.883 258.106C402.025 257.171 353.447 247.269 304.495 253.434C303.374 251.006 302.439 248.39 301.319 245.774C298.329 238.674 294.966 231.387 291.603 224.474C345.787 202.427 370.449 170.664 373.625 166.554ZM259.84 112.557C297.208 112.557 331.4 126.57 357.37 149.551C354.755 153.288 332.521 182.996 280.206 202.614C256.103 158.333 229.385 122.086 225.275 116.481C236.298 113.865 247.882 112.557 259.84 112.557ZM197.249 126.383C201.172 131.615 227.33 168.049 251.806 211.395C183.049 229.706 122.326 229.332 115.786 229.332C125.315 183.743 156.144 145.815 197.249 126.383ZM112.61 259.6C112.61 258.106 112.61 256.611 112.61 255.116C118.962 255.303 190.335 256.237 263.763 234.19C268.061 242.411 271.984 250.819 275.721 259.227C273.853 259.787 271.798 260.348 269.929 260.908C194.072 285.384 153.715 352.273 150.352 357.878C126.996 331.907 112.61 297.342 112.61 259.6ZM259.84 406.644C225.835 406.644 194.446 395.059 169.596 375.628C172.212 370.21 202.106 312.663 285.063 283.703C285.437 283.516 285.624 283.516 285.998 283.329C306.737 336.952 315.145 381.98 317.387 394.873C299.637 402.533 280.206 406.644 259.84 406.644ZM341.863 381.42C340.368 372.452 332.521 329.478 313.276 276.603C359.426 269.316 399.783 281.274 404.828 282.955C398.475 323.873 374.933 359.186 341.863 381.42Z" fill="white"/>
</svg>
