<svg width="520" height="519" viewBox="0 0 520 519" fill="none" xmlns="http://www.w3.org/2000/svg">
<circle cx="260.36" cy="259.52" r="259.413" fill="#010D7C"/>
<path d="M409.643 168.1C407.936 160.621 404.611 153.851 400.021 148.508C395.301 143.001 389.517 139.062 383.213 137.062C359.623 129.426 265.11 129.426 265.11 129.426C225.708 128.875 186.316 131.296 147.157 136.676C140.853 138.824 135.079 142.851 130.349 148.4C125.701 153.892 122.335 160.664 120.576 168.084C116.352 196.033 114.299 224.411 114.446 252.837C114.295 281.237 116.343 309.606 120.576 337.59C122.297 344.979 125.651 351.72 130.311 357.166C134.972 362.611 140.775 366.545 147.157 368.628C171.061 376.248 265.11 376.248 265.11 376.248C304.561 376.8 344.003 374.378 383.213 368.998C389.517 366.998 395.301 363.059 400.021 357.551C404.668 352.106 407.972 345.334 409.63 337.96C413.965 310.022 416.073 281.632 415.924 253.192C416.25 224.631 414.145 196.107 409.643 168.084V168.1ZM235.062 305.657V200.032L313.698 252.852L235.062 305.657Z" fill="white"/>
</svg>
